<mxfile host="app.diagrams.net" modified="2022-12-05T00:58:39.526Z" agent="5.0 (Windows NT 10.0; Win64; x64) AppleWebKit/537.36 (KHTML, like Gecko) Chrome/107.0.0.0 Safari/537.36 Edg/107.0.1418.62" version="20.6.0" etag="rnf1Z5NSKSiGVO66b0sV" type="github">
  <diagram id="SEpkC7aMaB5GKDP6Doux" name="第 1 页">
    <mxGraphModel dx="1375" dy="754" grid="1" gridSize="10" guides="1" tooltips="1" connect="1" arrows="1" fold="1" page="1" pageScale="1" pageWidth="827" pageHeight="1169" math="0" shadow="0">
      <root>
        <mxCell id="0" />
        <mxCell id="1" parent="0" />
        <mxCell id="BzNbD30EaYKdcaMy7LCS-8" style="edgeStyle=orthogonalEdgeStyle;rounded=0;orthogonalLoop=1;jettySize=auto;html=1;entryX=0.5;entryY=0;entryDx=0;entryDy=0;fontSize=20;" edge="1" parent="1" source="BzNbD30EaYKdcaMy7LCS-1" target="BzNbD30EaYKdcaMy7LCS-2">
          <mxGeometry relative="1" as="geometry">
            <Array as="points">
              <mxPoint x="414" y="70" />
              <mxPoint x="175" y="70" />
            </Array>
          </mxGeometry>
        </mxCell>
        <mxCell id="BzNbD30EaYKdcaMy7LCS-9" style="edgeStyle=orthogonalEdgeStyle;rounded=0;orthogonalLoop=1;jettySize=auto;html=1;entryX=0.5;entryY=0;entryDx=0;entryDy=0;fontSize=20;" edge="1" parent="1" source="BzNbD30EaYKdcaMy7LCS-1" target="BzNbD30EaYKdcaMy7LCS-3">
          <mxGeometry relative="1" as="geometry" />
        </mxCell>
        <mxCell id="BzNbD30EaYKdcaMy7LCS-10" style="edgeStyle=orthogonalEdgeStyle;rounded=0;orthogonalLoop=1;jettySize=auto;html=1;entryX=0.5;entryY=0;entryDx=0;entryDy=0;fontSize=20;" edge="1" parent="1" source="BzNbD30EaYKdcaMy7LCS-1" target="BzNbD30EaYKdcaMy7LCS-4">
          <mxGeometry relative="1" as="geometry">
            <Array as="points">
              <mxPoint x="414" y="70" />
              <mxPoint x="685" y="70" />
            </Array>
          </mxGeometry>
        </mxCell>
        <mxCell id="BzNbD30EaYKdcaMy7LCS-1" value="&lt;font style=&quot;font-size: 20px;&quot;&gt;水流速度对幼鱼的影响&lt;/font&gt;" style="rounded=1;whiteSpace=wrap;html=1;" vertex="1" parent="1">
          <mxGeometry x="306" y="20" width="216" height="40" as="geometry" />
        </mxCell>
        <mxCell id="BzNbD30EaYKdcaMy7LCS-11" style="edgeStyle=orthogonalEdgeStyle;rounded=0;orthogonalLoop=1;jettySize=auto;html=1;entryX=0.463;entryY=0.011;entryDx=0;entryDy=0;entryPerimeter=0;fontSize=20;" edge="1" parent="1" source="BzNbD30EaYKdcaMy7LCS-2" target="BzNbD30EaYKdcaMy7LCS-5">
          <mxGeometry relative="1" as="geometry" />
        </mxCell>
        <mxCell id="BzNbD30EaYKdcaMy7LCS-2" value="水流速度对游泳轨迹的影响" style="rounded=1;whiteSpace=wrap;html=1;fontSize=20;" vertex="1" parent="1">
          <mxGeometry x="100" y="120" width="150" height="60" as="geometry" />
        </mxCell>
        <mxCell id="BzNbD30EaYKdcaMy7LCS-12" style="edgeStyle=orthogonalEdgeStyle;rounded=0;orthogonalLoop=1;jettySize=auto;html=1;entryX=0.5;entryY=0;entryDx=0;entryDy=0;fontSize=20;" edge="1" parent="1" source="BzNbD30EaYKdcaMy7LCS-3" target="BzNbD30EaYKdcaMy7LCS-6">
          <mxGeometry relative="1" as="geometry" />
        </mxCell>
        <mxCell id="BzNbD30EaYKdcaMy7LCS-3" value="水流速度对幼鱼生长影响" style="rounded=1;whiteSpace=wrap;html=1;fontSize=20;" vertex="1" parent="1">
          <mxGeometry x="345.75" y="120" width="136.5" height="60" as="geometry" />
        </mxCell>
        <mxCell id="BzNbD30EaYKdcaMy7LCS-13" style="edgeStyle=orthogonalEdgeStyle;rounded=0;orthogonalLoop=1;jettySize=auto;html=1;entryX=0.5;entryY=0;entryDx=0;entryDy=0;fontSize=20;" edge="1" parent="1" source="BzNbD30EaYKdcaMy7LCS-4" target="BzNbD30EaYKdcaMy7LCS-7">
          <mxGeometry relative="1" as="geometry" />
        </mxCell>
        <mxCell id="BzNbD30EaYKdcaMy7LCS-4" value="水流速度对幼鱼生理生化的影响" style="rounded=1;whiteSpace=wrap;html=1;fontSize=20;" vertex="1" parent="1">
          <mxGeometry x="600" y="122.5" width="170" height="57.5" as="geometry" />
        </mxCell>
        <mxCell id="BzNbD30EaYKdcaMy7LCS-5" value="1、是否影响幼鱼的游泳行为、活跃性&lt;br&gt;&lt;div style=&quot;&quot;&gt;&lt;span style=&quot;background-color: initial;&quot;&gt;2、是否有异常行为轨迹&lt;/span&gt;&lt;/div&gt;" style="rounded=1;whiteSpace=wrap;html=1;fontSize=20;align=left;" vertex="1" parent="1">
          <mxGeometry x="100" y="220" width="160" height="180" as="geometry" />
        </mxCell>
        <mxCell id="BzNbD30EaYKdcaMy7LCS-6" value="&lt;div style=&quot;text-align: left;&quot;&gt;&lt;span style=&quot;background-color: initial;&quot;&gt;1、对生长的影响&lt;/span&gt;&lt;/div&gt;&lt;div style=&quot;text-align: left;&quot;&gt;&lt;span style=&quot;background-color: initial;&quot;&gt;2、对摄食量的影响&lt;/span&gt;&lt;/div&gt;&lt;div style=&quot;text-align: left;&quot;&gt;&lt;span style=&quot;background-color: initial;&quot;&gt;3、对肌肉和肝脏的蛋白质沉积量的影响&lt;/span&gt;&lt;/div&gt;" style="rounded=1;whiteSpace=wrap;html=1;fontSize=20;" vertex="1" parent="1">
          <mxGeometry x="334" y="220" width="160" height="180" as="geometry" />
        </mxCell>
        <mxCell id="BzNbD30EaYKdcaMy7LCS-7" value="&lt;div style=&quot;text-align: left;&quot;&gt;&lt;span style=&quot;background-color: initial;&quot;&gt;1、对血清生化指标的影响&lt;/span&gt;&lt;/div&gt;&lt;div style=&quot;text-align: left;&quot;&gt;&lt;span style=&quot;background-color: initial;&quot;&gt;2、对消化酶活性的影响&lt;/span&gt;&lt;/div&gt;&lt;div style=&quot;text-align: left;&quot;&gt;&lt;span style=&quot;background-color: initial;&quot;&gt;3、对抗氧化能力和免疫相关指标的影响&lt;/span&gt;&lt;/div&gt;" style="rounded=1;whiteSpace=wrap;html=1;fontSize=20;" vertex="1" parent="1">
          <mxGeometry x="605" y="220" width="160" height="180" as="geometry" />
        </mxCell>
      </root>
    </mxGraphModel>
  </diagram>
</mxfile>
